<svg xmlns="http://www.w3.org/2000/svg" viewBox="0 0 1000 250">
  <defs>
    <linearGradient id="g" x1="0" y1="0" x2="1" y2="1">
      <stop stop-color="#ffffff"/>
      <stop offset=".28" stop-color="#e9d5ff"/>
      <stop offset=".58" stop-color="#c084fc"/>
      <stop offset="1" stop-color="#7c3aed"/>
    </linearGradient>
    <filter id="glow" x="-30%" y="-60%" width="160%" height="220%">
      <feGaussianBlur stdDeviation="7" result="b"/>
      <feMerge><feMergeNode in="b"/><feMergeNode in="SourceGraphic"/></feMerge>
    </filter>
  </defs>
  <path d="M85 185C205 230 320 225 443 197S695 135 913 171" fill="none" stroke="#8b5cf6" stroke-width="7" stroke-linecap="round" opacity=".72" filter="url(#glow)"/>
  <path d="M76 176C205 216 325 209 451 182S700 124 925 156" fill="none" stroke="#f0abfc" stroke-width="2.5" stroke-linecap="round" opacity=".9"/>
  <text x="500" y="163" text-anchor="middle" font-family="Georgia, 'Times New Roman', serif" font-size="150" font-style="italic" font-weight="700" letter-spacing="-8" fill="url(#g)" stroke="#5b21b6" stroke-width="3" paint-order="stroke" filter="url(#glow)">Celestys</text>
  <g fill="#fff" filter="url(#glow)">
    <path d="M68 99l5 13 13 5-13 5-5 13-5-13-13-5 13-5z"/>
    <path d="M925 76l5 13 13 5-13 5-5 13-5-13-13-5 13-5z"/>
    <path d="M839 202l4 10 10 4-10 4-4 10-4-10-10-4 10-4z"/>
    <circle cx="167" cy="62" r="4"/><circle cx="745" cy="50" r="3"/>
  </g>
</svg>